<?xml version="1.0" encoding="UTF-8" standalone="no"?>
<svg width="35px" height="41px" viewBox="0 0 35 41" version="1.1" xmlns="http://www.w3.org/2000/svg" xmlns:xlink="http://www.w3.org/1999/xlink">
    <!-- Generator: Sketch 3.6.1 (26313) - http://www.bohemiancoding.com/sketch -->
    <title>Group</title>
    <desc>Created with Sketch.</desc>
    <defs></defs>
    <g id="Page-2" stroke="none" stroke-width="1" fill="none" fill-rule="evenodd">
        <g id="Subforum---Assets-&amp;-Simple-Styleguide" transform="translate(-224.000000, -177.000000)" fill="#FF9D62">
            <g id="Group" transform="translate(224.000000, 177.000000)">
                <path d="M2.917,32.4863 L17.153,37.9293 L31.42,32.4863 L17.154,5.1623 L2.917,32.4863 Z M17.152,40.0703 L0.106,33.5523 L17.152,0.8373 L34.233,33.5523 L17.152,40.0703 Z" id="Fill-40"></path>
                <path d="M10.3906,29.6172 L17.1566,32.2192 L23.9456,29.6182 L17.1566,16.6282 L10.3906,29.6172 Z M17.1556,33.8262 L8.2846,30.4142 L17.1546,13.3862 L26.0556,30.4172 L17.1556,33.8262 Z" id="Fill-41"></path>
                <path d="M24.7324,30.7178 L17.1564,27.8218 L9.6064,30.7158 L9.0684,29.3158 L17.1554,26.2158 L25.2684,29.3178 L24.7324,30.7178 Z" id="Fill-42"></path>
                <path d="M16.419,27.019 L17.919,27.019 L17.919,3 L16.419,3 L16.419,27.019 Z" id="Fill-43"></path>
                <path d="M16.419,39 L17.919,39 L17.919,33.022 L16.419,33.022 L16.419,39 Z" id="Fill-44"></path>
            </g>
        </g>
    </g>
</svg>