<?xml version="1.0" encoding="UTF-8" standalone="no"?>
<svg width="289px" height="85px" viewBox="0 0 289 85" version="1.1" xmlns="http://www.w3.org/2000/svg" xmlns:xlink="http://www.w3.org/1999/xlink">
    <!-- Generator: Sketch 3.6.1 (26313) - http://www.bohemiancoding.com/sketch -->
    <title>subf-knockout-full copy</title>
    <desc>Created with Sketch.</desc>
    <defs></defs>
    <g id="Page-1" stroke="none" stroke-width="1" fill="none" fill-rule="evenodd">
        <g id="subf-knockout-full-copy">
            <rect id="Rectangle-1" fill="#F0552D" x="0" y="0" width="289" height="85"></rect>
            <g id="Group" transform="translate(2.000000, 0.849653)">
                <polygon id="Polygon-1" stroke="#D1D2D4" stroke-width="2.6" stroke-linecap="round" fill="#F0552D" points="4.84769853 62.4483013 32.5 8.20565478 32.5 31.3731425 19.0787983 56.8849521 32.4999988 62.4483013 32.4999998 72.9954808 "></polygon>
                <polygon id="Polygon-1-Copy" stroke="#D1D2D4" stroke-width="2.6" stroke-linecap="round" fill="#F0552D" transform="translate(46.273056, 40.600568) scale(-1, 1) translate(-46.273056, -40.600568) " points="32.4469049 62.4483013 60.0992063 8.20565478 60.0992063 31.3731425 46.6780046 56.8849521 60.0992052 62.4483013 60.0992061 72.9954808 "></polygon>
                <polygon id="Triangle-1" stroke="#D1D2D4" stroke-width="1.28968254" fill="#F0552D" points="32.5 31.2895536 32.5 50.9976055 19.4308712 56.4369014 "></polygon>
                <polygon id="Triangle-1-Copy" stroke="#D1D2D4" stroke-width="1.28968254" fill="#F0552D" transform="translate(39.034564, 43.863228) scale(-1, 1) translate(-39.034564, -43.863228) " points="45.5691288 31.2895536 45.5691288 50.9976055 32.5 56.4369014 "></polygon>
                <polygon id="Polygon-3" stroke="#F0552D" stroke-width="5.15873016" points="32.5 0.150346951 0.0488555701 64.1290951 32.5 76.849653 64.9511444 64.1290951 "></polygon>
            </g>
            <text id="SUBFORUM" font-family="Avenir-Heavy, Avenir" font-size="30" font-weight="600" letter-spacing="6" fill="#D1D2D4">
                <tspan x="72" y="50">SUBFORU</tspan>
                <tspan x="255.09" y="50">M</tspan>
            </text>
        </g>
    </g>
</svg>