<?xml version="1.0" encoding="UTF-8" standalone="no"?>
<svg width="161px" height="41px" viewBox="0 0 161 41" version="1.1" xmlns="http://www.w3.org/2000/svg" xmlns:xlink="http://www.w3.org/1999/xlink">
    <!-- Generator: Sketch 3.6.1 (26313) - http://www.bohemiancoding.com/sketch -->
    <title>Group</title>
    <desc>Created with Sketch.</desc>
    <defs></defs>
    <g id="Page-2" stroke="none" stroke-width="1" fill="none" fill-rule="evenodd">
        <g id="Subforum---Assets-&amp;-Simple-Styleguide" transform="translate(-225.000000, -177.000000)" fill="#FFFFFF">
            <g id="Group" transform="translate(225.000000, 177.000000)">
                <path d="M2.917,32.4863 L17.153,37.9293 L31.42,32.4863 L17.154,5.1623 L2.917,32.4863 Z M17.152,40.0703 L0.106,33.5523 L17.152,0.8373 L34.233,33.5523 L17.152,40.0703 Z" id="Fill-40"></path>
                <path d="M10.3906,29.6172 L17.1566,32.2192 L23.9456,29.6182 L17.1566,16.6282 L10.3906,29.6172 Z M17.1556,33.8262 L8.2846,30.4142 L17.1546,13.3862 L26.0556,30.4172 L17.1556,33.8262 Z" id="Fill-41"></path>
                <path d="M24.7324,30.7178 L17.1564,27.8218 L9.6064,30.7158 L9.0684,29.3158 L17.1554,26.2158 L25.2684,29.3178 L24.7324,30.7178 Z" id="Fill-42"></path>
                <path d="M16.419,27.019 L17.919,27.019 L17.919,3 L16.419,3 L16.419,27.019 Z" id="Fill-43"></path>
                <path d="M16.419,39 L17.919,39 L17.919,33.022 L16.419,33.022 L16.419,39 Z" id="Fill-44"></path>
                <g id="Group-61" transform="translate(39.000000, 14.000000)">
                    <path d="M7.7038,3.9289 C7.4888,3.6569 7.1968,3.4569 6.8298,3.3259 C6.4618,3.1959 6.1148,3.1309 5.7858,3.1309 C5.5938,3.1309 5.3958,3.1539 5.1928,3.1989 C4.9888,3.2439 4.7968,3.3149 4.6158,3.4109 C4.4338,3.5069 4.2878,3.6349 4.1748,3.7929 C4.0618,3.9519 4.0048,4.1439 4.0048,4.3699 C4.0048,4.7319 4.1408,5.0089 4.4118,5.2009 C4.6838,5.3939 5.0258,5.5569 5.4378,5.6929 C5.8508,5.8289 6.2958,5.9649 6.7708,6.0999 C7.2458,6.2359 7.6898,6.4289 8.1018,6.6769 C8.5148,6.9269 8.8578,7.2599 9.1288,7.6779 C9.4008,8.0969 9.5358,8.6569 9.5358,9.3579 C9.5358,10.0259 9.4108,10.6079 9.1628,11.1059 C8.9138,11.6039 8.5778,12.0169 8.1538,12.3439 C7.7298,12.6729 7.2368,12.9159 6.6768,13.0739 C6.1168,13.2319 5.5258,13.3119 4.9038,13.3119 C4.1228,13.3119 3.3998,13.1929 2.7318,12.9549 C2.0648,12.7179 1.4428,12.3339 0.8658,11.8019 L2.7498,9.7319 C3.0208,10.0939 3.3628,10.3739 3.7758,10.5709 C4.1888,10.7689 4.6158,10.8679 5.0568,10.8679 C5.2718,10.8679 5.4898,10.8429 5.7098,10.7919 C5.9308,10.7419 6.1278,10.6649 6.3038,10.5629 C6.4788,10.4609 6.6208,10.3309 6.7278,10.1729 C6.8358,10.0149 6.8888,9.8279 6.8888,9.6129 C6.8888,9.2509 6.7498,8.9659 6.4738,8.7559 C6.1958,8.5469 5.8488,8.3679 5.4298,8.2209 C5.0108,8.0749 4.5588,7.9279 4.0728,7.7799 C3.5858,7.6329 3.1338,7.4349 2.7158,7.1869 C2.2968,6.9379 1.9488,6.6099 1.6718,6.2019 C1.3948,5.7949 1.2558,5.2579 1.2558,4.5899 C1.2558,3.9459 1.3828,3.3799 1.6378,2.8929 C1.8918,2.4079 2.2318,1.9999 2.6558,1.6719 C3.0798,1.3439 3.5688,1.0979 4.1228,0.9339 C4.6778,0.7699 5.2488,0.6879 5.8378,0.6879 C6.5158,0.6879 7.1718,0.7839 7.8058,0.9769 C8.4388,1.1689 9.0098,1.4909 9.5188,1.9439 L7.7038,3.9289 Z" id="Fill-45"></path>
                    <path d="M25.3154,8.3742 C25.3154,9.0872 25.2074,9.7432 24.9934,10.3422 C24.7784,10.9422 24.4594,11.4622 24.0344,11.9032 C23.6104,12.3442 23.0814,12.6902 22.4484,12.9382 C21.8144,13.1872 21.0844,13.3122 20.2594,13.3122 C19.4214,13.3122 18.6864,13.1872 18.0534,12.9382 C17.4194,12.6902 16.8914,12.3442 16.4674,11.9032 C16.0434,11.4622 15.7224,10.9422 15.5084,10.3422 C15.2934,9.7432 15.1854,9.0872 15.1854,8.3742 L15.1854,0.9932 L17.8324,0.9932 L17.8324,8.2722 C17.8324,8.6452 17.8924,8.9912 18.0114,9.3072 C18.1304,9.6242 18.2964,9.8982 18.5124,10.1302 C18.7264,10.3622 18.9834,10.5432 19.2844,10.6732 C19.5834,10.8032 19.9084,10.8682 20.2594,10.8682 C20.6094,10.8682 20.9314,10.8032 21.2264,10.6732 C21.5204,10.5432 21.7744,10.3622 21.9904,10.1302 C22.2044,9.8982 22.3724,9.6242 22.4904,9.3072 C22.6094,8.9912 22.6684,8.6452 22.6684,8.2722 L22.6684,0.9932 L25.3154,0.9932 L25.3154,8.3742 Z" id="Fill-47"></path>
                    <path d="M34.0878,10.7663 L36.4638,10.7663 C36.6678,10.7663 36.8728,10.7433 37.0828,10.6983 C37.2918,10.6533 37.4818,10.5743 37.6508,10.4613 C37.8218,10.3483 37.9588,10.2003 38.0668,10.0203 C38.1748,9.8393 38.2278,9.6183 38.2278,9.3583 C38.2278,9.0753 38.1568,8.8463 38.0168,8.6713 C37.8748,8.4953 37.6958,8.3633 37.4818,8.2723 C37.2668,8.1823 37.0348,8.1193 36.7858,8.0853 C36.5368,8.0523 36.3048,8.0343 36.0908,8.0343 L34.0878,8.0343 L34.0878,10.7663 Z M34.0878,5.7953 L36.0058,5.7953 C36.2088,5.7953 36.4098,5.7723 36.6078,5.7263 C36.8048,5.6823 36.9838,5.6083 37.1418,5.5073 C37.3008,5.4043 37.4278,5.2693 37.5238,5.0993 C37.6198,4.9303 37.6688,4.7253 37.6688,4.4883 C37.6688,4.2403 37.6138,4.0333 37.5068,3.8693 C37.3998,3.7053 37.2608,3.5783 37.0918,3.4873 C36.9218,3.3973 36.7288,3.3323 36.5148,3.2923 C36.2988,3.2523 36.0908,3.2333 35.8868,3.2333 L34.0878,3.2333 L34.0878,5.7953 Z M31.4408,0.9933 L35.9198,0.9933 C36.4408,0.9933 36.9638,1.0303 37.4898,1.1033 C38.0168,1.1763 38.4888,1.3233 38.9068,1.5443 C39.3258,1.7653 39.6648,2.0743 39.9248,2.4693 C40.1848,2.8653 40.3148,3.3913 40.3148,4.0473 C40.3148,4.7253 40.1258,5.2893 39.7468,5.7353 C39.3678,6.1823 38.8678,6.5013 38.2458,6.6943 L38.2458,6.7283 C38.6408,6.7853 38.9998,6.8953 39.3228,7.0593 C39.6448,7.2233 39.9218,7.4323 40.1538,7.6863 C40.3858,7.9413 40.5638,8.2383 40.6888,8.5773 C40.8128,8.9173 40.8758,9.2793 40.8758,9.6633 C40.8758,10.2973 40.7388,10.8263 40.4678,11.2503 C40.1958,11.6743 39.8458,12.0163 39.4158,12.2763 C38.9858,12.5373 38.5018,12.7243 37.9648,12.8373 C37.4278,12.9493 36.8938,13.0063 36.3618,13.0063 L31.4408,13.0063 L31.4408,0.9933 Z" id="Fill-49"></path>
                    <path d="M46.22,0.993 L54.28,0.993 L54.28,3.436 L48.867,3.436 L48.867,5.88 L53.872,5.88 L53.872,8.323 L48.867,8.323 L48.867,13.006 L46.22,13.006 L46.22,0.993 Z" id="Fill-51"></path>
                    <path d="M61.9653,6.9996 C61.9653,7.5656 62.0533,8.0826 62.2293,8.5516 C62.4033,9.0216 62.6553,9.4286 62.9833,9.7736 C63.3123,10.1196 63.7053,10.3876 64.1633,10.5796 C64.6213,10.7726 65.1323,10.8676 65.6993,10.8676 C66.2633,10.8676 66.7763,10.7726 67.2343,10.5796 C67.6923,10.3876 68.0853,10.1196 68.4133,9.7736 C68.7413,9.4286 68.9933,9.0216 69.1683,8.5516 C69.3433,8.0826 69.4313,7.5656 69.4313,6.9996 C69.4313,6.4456 69.3433,5.9306 69.1683,5.4556 C68.9933,4.9806 68.7413,4.5706 68.4133,4.2256 C68.0853,3.8806 67.6923,3.6116 67.2343,3.4196 C66.7763,3.2266 66.2633,3.1316 65.6993,3.1316 C65.1323,3.1316 64.6213,3.2266 64.1633,3.4196 C63.7053,3.6116 63.3123,3.8806 62.9833,4.2256 C62.6553,4.5706 62.4033,4.9806 62.2293,5.4556 C62.0533,5.9306 61.9653,6.4456 61.9653,6.9996 M59.2173,6.9996 C59.2173,6.0386 59.3783,5.1666 59.7003,4.3866 C60.0233,3.6056 60.4723,2.9416 61.0493,2.3936 C61.6263,1.8436 62.3103,1.4226 63.1023,1.1286 C63.8943,0.8346 64.7593,0.6876 65.6993,0.6876 C66.6373,0.6876 67.5023,0.8346 68.2943,1.1286 C69.0863,1.4226 69.7703,1.8436 70.3473,2.3936 C70.9243,2.9416 71.3743,3.6056 71.6963,4.3866 C72.0183,5.1666 72.1803,6.0386 72.1803,6.9996 C72.1803,7.9616 72.0183,8.8316 71.6963,9.6126 C71.3743,10.3936 70.9243,11.0576 70.3473,11.6056 C69.7703,12.1556 69.0863,12.5766 68.2943,12.8706 C67.5023,13.1646 66.6373,13.3116 65.6993,13.3116 C64.7593,13.3116 63.8943,13.1646 63.1023,12.8706 C62.3103,12.5766 61.6263,12.1556 61.0493,11.6056 C60.4723,11.0576 60.0233,10.3936 59.7003,9.6126 C59.3783,8.8316 59.2173,7.9616 59.2173,6.9996" id="Fill-53"></path>
                    <path d="M80.3076,5.9647 L81.8686,5.9647 C82.1066,5.9647 82.3576,5.9567 82.6236,5.9387 C82.8896,5.9227 83.1296,5.8717 83.3456,5.7867 C83.5596,5.7017 83.7386,5.5687 83.8796,5.3877 C84.0206,5.2067 84.0916,4.9527 84.0916,4.6237 C84.0916,4.3187 84.0286,4.0757 83.9046,3.8947 C83.7806,3.7137 83.6226,3.5747 83.4306,3.4787 C83.2376,3.3827 83.0166,3.3177 82.7686,3.2837 C82.5186,3.2497 82.2766,3.2327 82.0386,3.2327 L80.3076,3.2327 L80.3076,5.9647 Z M77.6606,0.9927 L82.3106,0.9927 C82.9216,0.9927 83.5006,1.0527 84.0496,1.1717 C84.5976,1.2897 85.0786,1.4877 85.4916,1.7647 C85.9046,2.0417 86.2326,2.4157 86.4756,2.8847 C86.7186,3.3537 86.8406,3.9397 86.8406,4.6417 C86.8406,5.4897 86.6196,6.2107 86.1786,6.8047 C85.7376,7.3977 85.0926,7.7747 84.2446,7.9327 L87.2986,13.0067 L84.1256,13.0067 L81.6146,8.2047 L80.3076,8.2047 L80.3076,13.0067 L77.6606,13.0067 L77.6606,0.9927 Z" id="Fill-55"></path>
                    <path d="M102.467,8.3742 C102.467,9.0872 102.359,9.7432 102.145,10.3422 C101.93,10.9422 101.611,11.4622 101.186,11.9032 C100.762,12.3442 100.233,12.6902 99.6,12.9382 C98.966,13.1872 98.236,13.3122 97.411,13.3122 C96.573,13.3122 95.838,13.1872 95.205,12.9382 C94.571,12.6902 94.043,12.3442 93.619,11.9032 C93.195,11.4622 92.874,10.9422 92.66,10.3422 C92.445,9.7432 92.337,9.0872 92.337,8.3742 L92.337,0.9932 L94.984,0.9932 L94.984,8.2722 C94.984,8.6452 95.044,8.9912 95.163,9.3072 C95.282,9.6242 95.448,9.8982 95.663,10.1302 C95.878,10.3622 96.135,10.5432 96.436,10.6732 C96.735,10.8032 97.06,10.8682 97.411,10.8682 C97.761,10.8682 98.083,10.8032 98.378,10.6732 C98.672,10.5432 98.926,10.3622 99.142,10.1302 C99.356,9.8982 99.524,9.6242 99.642,9.3072 C99.761,8.9912 99.82,8.6452 99.82,8.2722 L99.82,0.9932 L102.467,0.9932 L102.467,8.3742 Z" id="Fill-57"></path>
                    <path d="M107.914,0.993 L111.919,0.993 L114.684,8.832 L114.718,8.832 L117.5,0.993 L121.488,0.993 L121.488,13.006 L118.841,13.006 L118.841,3.793 L118.807,3.793 L115.651,13.006 L113.632,13.006 L110.595,3.793 L110.561,3.793 L110.561,13.006 L107.914,13.006 L107.914,0.993 Z" id="Fill-59"></path>
                </g>
            </g>
        </g>
    </g>
</svg>